<svg xmlns:rdf="http://www.w3.org/1999/02/22-rdf-syntax-ns#" xmlns="http://www.w3.org/2000/svg" height="100%" width="100%" version="1.1" xmlns:cc="http://creativecommons.org/ns#" xmlns:xlink="http://www.w3.org/1999/xlink" viewBox="0 0 4000 2400" xmlns:dc="http://purl.org/dc/elements/1.1/">
	<g fill="#999b97">
		<path d="m2686 2069h-1149c-27-1-47-7-63-20-14-12-31-21-48-29-225-96-342-264-330-517 3-59 18-117 46-169 50-98 134-193 239-286 183-161.4 262-311.4 178-441.8-27 70.4-84 92.4-156 88.4-86 93-174 154-270 154-7-1-8-5-6-12 1-5 4-10 8-13 75-61 131-134 172-217.4-14-86.7 5-155 76-192.8 85-40.5 175-41 269 0 169 80.5 205 219.6 136 404.2-59 120-158 248.4-276 380.4-11 13-22 27-31 42-92 153-87 290 15 409 64 63 126 99 188 87 24-4 46-18 63-36 134-140 15-376-222-372 37-184 907-768.4 1326-664.4 10 2 18 7 24 13 29 29 51 63 68 98-297-10-575 80-837 257.4-3 3-6 5-8 9-11 17-9 29 5 35 9 4 18 3 25-2 254-160.4 501-238.4 741-214.4 11 1 20 6 26 15 16 21 27 45 32 71-273-4-510 67.4-709 217.4-3 3-5 5-6 9-3 6-2 11 4 14 6 4 14 3 20 0 238-122 462-171 667-119 24 10 28 45 32 81-246-18-460 46-652 164-6 4-10 12-8 19 1 6 4 10 11 13 6 3 12 3 16 0 195-94 388-128 580-84 7 1 15 6 19 12 18 25 25 53 25 85-222-36-418-16-575 87-22 17-26 29-1 33 6 1 11 1 16-1 155-63 305-90 448-74 12 1 24 5 33 13 36 26 45 62 29 106-179-21-337-7-464 57-8 3-14 9-19 15-32 36-30 65 18 87 4 2 8 3 12 5 103 26 265-43 437-125-33 123-109 225-214 312-6 4-11 8-16 11-32 23-43 46-22 74 42 37 70 74 78 112z"/>
		<path id="lil" d="m553.7 1146v139c-35 70-105 175-105 175s70 70 105 139v349s-70-209-140-279c-35-70-139-209-139-209l-70 70h-36s-34 69-34 69c0 35-34.98 35-34.98 35s209 105 279 210c105 69 140 244 140 244h104s35-175 140-244c70-105 279.3-210 279.3-210s-35 0-35-35v-69h-70.3c-35-35-35-70-35-70s-139 139-174 209c-70 70-140 279-140 279s0-279 35-349c0-69 70-139 70-139s-70-105-105-175v-139h-34z"/>
		<use xlink:href="#lil" transform="translate(2800)"/>
	</g>
</svg>
