<?xml version="1.0" encoding="utf-8"?>
<!-- Generator: Adobe Illustrator 12.0.1, SVG Export Plug-In . SVG Version: 6.00 Build 51448)  -->
<!DOCTYPE svg PUBLIC "-//W3C//DTD SVG 1.1//EN" "http://www.w3.org/Graphics/SVG/1.1/DTD/svg11.dtd" [
	<!ENTITY ns_svg "http://www.w3.org/2000/svg">
	<!ENTITY ns_xlink "http://www.w3.org/1999/xlink">
]>
<svg  version="1.1" id="Layer_1" xmlns="&ns_svg;" xmlns:xlink="&ns_xlink;" width="300.894" height="198.715"
	 viewBox="0 0 300.894 198.715" overflow="visible" enable-background="new 0 0 300.894 198.715" xml:space="preserve">
<path fill-rule="evenodd" clip-rule="evenodd" fill="#010101" d="M40.364,4.462c15.01-4.995,24.482-3.908,40.637-4.41
	c16.149-0.48,50.417,2.466,64.618,3.929c14.2,1.463,60.208,9.781,70.981,13.208c10.783,3.427,43.573,15.183,56.301,23.991
	c12.727,8.819,29.383,30.366,27.899,42.11c-1.463,11.745-7.336,25.936-22.508,38.662c-15.193,12.737-38.192,29.373-54.347,37.701
	c-16.165,8.328-43.573,21.045-56.29,25.956c-12.737,4.89-33.291,10.271-49.451,12.226c-16.154,1.964-45.527,0.49-59.728-2.926
	c-14.195-3.438-26.865-11.307-32.806-20.084c-12.23-18.119-5.658-28.84-13.213-53.855C4.628,95.036-1.25,82.789,0.229,56.353
	c1.468-26.426,9.781-31.327,15.653-37.199C21.77,13.281,31.545,7.409,40.364,4.462"/>
<path fill="#F5EB15" d="M63.378,15.235c9.875-0.721,44.545,0,57.758,1.474c13.229,1.463,56.802,8.798,68.045,11.264
	c11.265,2.445,45.538,11.254,58.265,17.137c12.728,5.862,28.391,16.133,32.31,22.518c3.908,6.363,8.317,16.635,1.954,26.426
	c-6.354,9.791-22.017,27.899-40.146,38.684c-18.108,10.763-53.343,26.917-66.571,31.807c-13.219,4.901-39.164,14.211-58.746,16.155
	c-19.582,1.964-47.978,5.872-61.682-3.407c-13.709-9.31-19.091-26.446-23.991-43.092c-4.89-16.636-15.664-48.965-16.651-56.781
	c-0.972-7.848-1.463-34.273,8.328-43.584C32.036,24.535,43.306,16.708,63.378,15.235"/>
<path fill-rule="evenodd" clip-rule="evenodd" fill="#010101" d="M133.096,39.227h-0.183h-0.183l-0.267-0.084h-0.266h-0.173
	l-0.183-0.094h-0.167h-0.173h-0.183h-0.267h-0.172l-0.183-0.094h-0.167h-0.183h-0.172h-0.183l-0.172,0.094h-0.178h-0.172h-0.172
	h-0.183h-0.183h-0.167h-0.183l-0.172,0.094h-0.183h-0.183h-0.167l-0.272,0.084h-0.167l-0.183,0.094h-0.172h-0.266l-0.267,0.094
	l-0.261,0.094l-0.36,0.084l-0.256,0.094L125.4,39.78l-0.267,0.094l-0.167,0.094l-0.183,0.083l-0.266,0.094l-0.173,0.094
	l-0.172,0.094h-0.183l-0.183,0.083l-0.167,0.094l-0.183,0.188l-0.266,0.083l-0.172,0.104l-0.183,0.083l-0.083,0.104l-0.172,0.084
	l-0.267,0.188l-0.172,0.083l-0.099,0.188l-0.167,0.083l-0.271,0.188l-0.178,0.083l-0.172,0.188l-0.183,0.188l-0.183,0.083
	l-0.167,0.188l-0.172,0.188l-0.183,0.282l-0.183,0.177l-0.173,0.188l-0.083,0.188l-0.183,0.178l-0.073,0.188l-0.183,0.178
	l-0.094,0.083l-0.172,0.188l-0.089,0.188l-0.083,0.188l-0.094,0.272l-0.183,0.188l-0.089,0.167l-0.167,0.293l-0.099,0.188
	l-0.073,0.271l-0.099,0.272l-0.083,0.188l-0.183,0.271l-0.083,0.366l-0.089,0.272l-0.094,0.366l-0.083,0.376v0.083l-0.089,0.376
	v0.188l-0.083,0.167v0.188v0.188l-0.099,0.188v0.188v0.188v0.167v0.271v0.104v0.178v0.188v0.271v0.188v0.083v0.282v0.083v0.188
	v0.282l0.099,0.178v0.188v0.188l0.083,0.167v0.188l0.089,0.188v0.188l0.083,0.167v0.293l0.094,0.188l0.089,0.167v0.188l0.083,0.188
	l0.089,0.177l0.094,0.188l0.083,0.282l0.099,0.178l0.073,0.188l0.099,0.178l0.167,0.282l0.089,0.178l0.094,0.188l0.089,0.188
	l0.094,0.188l0.172,0.167l0.083,0.188l0.089,0.188l0.178,0.188l0.099,0.084l0.172,0.271l0.167,0.188l0.089,0.188l0.183,0.178
	l0.167,0.188l0.272,0.178l0.167,0.188l0.183,0.188l0.183,0.177l0.172,0.188l0.178,0.083l0.172,0.188l0.183,0.094l0.183,0.188
	l0.172,0.083l0.167,0.094l0.183,0.177l0.172,0.104l0.183,0.084l0.266,0.188l0.084,0.083h0.172l0.183,0.104l0.267,0.083l0.183,0.104
	l0.172,0.083l0.173,0.084l0.177,0.104l0.172,0.083l0.267,0.104l0.172,0.083h0.193l0.172,0.083l0.256,0.083h0.183l0.267,0.104h0.172
	l0.267,0.084h0.172l0.177,0.104h0.173l0.183,0.083h0.267h0.172h0.183l0.172,0.104h0.267h0.183h0.167h0.271h0.094h0.172l0.256,0.083
	h0.183l0.183-0.083h0.256h0.266h0.267h0.172h0.267h0.183h0.256h0.266l0.173-0.104h0.183h0.083h0.267l0.183-0.083h0.183h0.172h0.172
	l0.178-0.104h0.172h0.183l0.083-0.084h0.271l0.167-0.104h0.266l0.183-0.083h0.172l0.183-0.083l0.084-0.083h0.172l0.266-0.104
	l0.172-0.083h0.183l0.183-0.104l0.167-0.084l0.183-0.083l0.172-0.104h0.183l0.183-0.083l0.167-0.104l0.172-0.083l0.183-0.083h0.183
	l0.172-0.104l0.167-0.084l0.183-0.104l0.183-0.083v-4.41l-0.449,0.272l-0.172,0.094l-0.183,0.178l-0.178,0.104l-0.261,0.083
	l-0.167,0.104l-0.183,0.084l-0.089,0.083l-0.178,0.104l-0.172,0.083l-0.267,0.083l-0.183,0.104l-0.183,0.083l-0.172,0.104
	l-0.172,0.084l-0.266,0.083l-0.183,0.104h-0.167l-0.272,0.083l-0.167,0.104l-0.099,0.083h-0.167l-0.355,0.104l-0.267,0.167h-0.355
	l-0.256,0.094l-0.366,0.094h-0.267l-0.172,0.094h-0.167h-0.183l-0.183,0.094h-0.256h-0.183h-0.183h-0.256h-0.183h-0.167
	l-0.183,0.083l-0.172-0.083h-0.183h-0.172h-0.178h-0.172h-0.172h-0.183h-0.183l-0.267-0.094h-0.172h-0.266l-0.267-0.094h-0.172
	l-0.267-0.094l-0.267-0.094h-0.172l-0.266-0.084l-0.183-0.083l-0.172-0.104l-0.172-0.083h-0.178l-0.183-0.104l-0.173-0.083
	l-0.183-0.104l-0.172-0.083l-0.178-0.188l-0.256-0.083l-0.183-0.104l-0.172-0.167l-0.183-0.104l-0.183-0.083l-0.167-0.188
	l-0.183-0.188l-0.172-0.178l-0.183-0.177l-0.172-0.188l-0.178-0.188l-0.172-0.178l-0.089-0.188l-0.178-0.178l-0.089-0.188
	l-0.183-0.178l-0.084-0.188l-0.083-0.178l-0.099-0.188l-0.073-0.188l-0.099-0.188l-0.083-0.188l-0.084-0.188v-0.167l-0.099-0.188
	l-0.083-0.272v-0.104l-0.089-0.271v-0.188l-0.094-0.261v-0.282l-0.083-0.188v-0.178v-0.188v-0.178V51.17v-0.178v-0.188v-0.178
	v-0.188V50.25v-0.167v-0.188l0.083-0.188v-0.188v-0.188l0.094-0.188v-0.167l0.089-0.188v-0.188l0.083-0.188l0.099-0.178v-0.188
	l0.084-0.178l0.083-0.188l0.099-0.178l0.073-0.188l0.099-0.178l0.083-0.188l0.084-0.188l0.099-0.188l0.172-0.188l0.083-0.167
	l0.183-0.188l0.083-0.188l0.183-0.188l0.172-0.188l0.267-0.25l0.267-0.292l0.256-0.272l0.366-0.188l0.256-0.271l0.183-0.094
	l0.35-0.188l0.172-0.083l0.183-0.094l0.173-0.083l0.183-0.104l0.178-0.083l0.089-0.094h0.172l0.167-0.094l0.183-0.094h0.183
	l0.172-0.083l0.183-0.094h0.167l0.183-0.094h0.172h0.183l0.172-0.094h0.178h0.172l0.183-0.094h0.172h0.183h0.167h0.183l0.172-0.094
	h0.183h0.183h0.167h0.172h0.183l0.183,0.094h0.167h0.172h0.183h0.183h0.173l0.167,0.094h0.183h0.173h0.183l0.183,0.094h0.266h0.083
	l0.256,0.094l0.183,0.094h0.183l0.172,0.083h0.172l0.178,0.094h0.183l0.172,0.094l0.183,0.094h0.167l0.183,0.083l0.172,0.104
	l0.183,0.083h0.256l0.183,0.094l0.183,0.083l0.167,0.104l0.172,0.083l0.183,0.094l0.183,0.083l0.172,0.104l0.178,0.083l0.172,0.094
	l0.183,0.094l0.172,0.094l0.266,0.094l0.183,0.084l0.439,0.376v-4.326l-0.183-0.083l-0.172-0.104l-0.267-0.083l-0.183-0.094
	l-0.172-0.094h-0.167l-0.183-0.094l-0.183-0.083l-0.172-0.094h-0.183l-0.167-0.094l-0.183-0.094h-0.183l-0.172-0.083l-0.172-0.094
	h-0.178L135.3,39.78h-0.183l-0.172-0.094h-0.183l-0.167-0.094h-0.183l-0.172-0.084h-0.183l-0.178-0.094h-0.172l-0.172-0.094h-0.183
	h-0.183L133.096,39.227z M112.412,34.817h32.784v32.068h-32.784V34.817z"/>
<path fill-rule="evenodd" clip-rule="evenodd" fill="#010101" d="M83.169,39.32v23.051h8.391h0.183h0.167h0.267h0.355l0.439-0.084
	h0.449l0.439-0.104l0.522-0.167l0.538-0.083l0.522-0.188l0.533-0.272l0.455-0.188l0.522-0.376l0.439-0.366l0.533-0.366l0.256-0.366
	l0.282-0.366l0.256-0.376l0.183-0.366l0.167-0.366l0.183-0.271l0.089-0.376l0.094-0.271l0.073-0.271v-0.272v-0.282l0.099-0.177
	v-0.282v-0.188v-0.272l-0.099-0.178v-0.282v-0.272l-0.073-0.282l-0.094-0.271l-0.089-0.376l-0.083-0.272l-0.183-0.355l-0.183-0.376
	l-0.256-0.376l-0.267-0.261l-0.267-0.376l-0.261-0.271l-0.277-0.271l-0.339-0.188l-0.282-0.188l-0.256-0.178L96.33,50.71
	l-0.267-0.083l-0.256-0.188l-0.172-0.104l-0.277-0.083h-0.172l-0.183-0.094l-0.172-0.073l0.172-0.188l0.183-0.104l0.256-0.188
	l0.267-0.167l0.266-0.188l0.272-0.271l0.183-0.188l0.167-0.282l0.256-0.366l0.099-0.188l0.183-0.272l0.083-0.271l0.083-0.272
	l0.089-0.282l0.083-0.366v-0.376l0.1-0.459v-0.355v-0.46l-0.1-0.459l-0.083-0.366l-0.089-0.366l-0.083-0.376l-0.183-0.271
	l-0.084-0.376l-0.183-0.188l-0.172-0.271l-0.083-0.188l-0.183-0.167l-0.183-0.271l-0.173-0.188l-0.167-0.188l-0.366-0.272
	L95.27,40.7l-0.267-0.188l-0.35-0.178l-0.355-0.188l-0.439-0.178L93.42,39.78l-0.533-0.188l-0.538-0.084l-0.606-0.188h-0.622h-0.705
	H83.169z M74.601,34.817h32.784v32.068H74.601V34.817z"/>
<path fill-rule="evenodd" clip-rule="evenodd" fill="#010101" d="M45.354,39.32v23.051h8.391h0.183h0.256h0.267h0.355l0.35-0.084
	h0.439l0.449-0.104l0.528-0.167l0.533-0.083l0.522-0.188l0.539-0.272l0.522-0.188l0.449-0.376l0.527-0.366l0.439-0.366l0.267-0.366
	l0.267-0.366l0.256-0.376l0.183-0.366l0.183-0.366l0.183-0.271l0.084-0.376l0.083-0.271l0.089-0.271v-0.272l0.083-0.282v-0.177
	v-0.282v-0.188v-0.272v-0.178l-0.083-0.282v-0.272l-0.089-0.282l-0.083-0.271l-0.084-0.376l-0.099-0.272l-0.172-0.355l-0.178-0.376
	l-0.172-0.376l-0.267-0.261l-0.355-0.376l-0.256-0.271l-0.277-0.271l-0.261-0.188l-0.266-0.188l-0.35-0.178l-0.272-0.188
	l-0.266-0.083l-0.172-0.188l-0.267-0.104l-0.267-0.083H57.36l-0.172-0.094l-0.167-0.073l0.167-0.188l0.271-0.104l0.167-0.188
	l0.272-0.167l0.267-0.188l0.266-0.271l0.183-0.188l0.256-0.282l0.183-0.366l0.172-0.188l0.083-0.272l0.094-0.271l0.089-0.272
	l0.084-0.282l0.088-0.366l0.094-0.376v-0.459v-0.355v-0.46l-0.094-0.459l-0.088-0.366l-0.084-0.366l-0.089-0.376l-0.094-0.271
	l-0.172-0.376l-0.183-0.188l-0.083-0.271l-0.183-0.188l-0.173-0.167l-0.167-0.271l-0.183-0.188l-0.183-0.188l-0.355-0.272
	L57.459,40.7l-0.271-0.188l-0.35-0.178l-0.355-0.188l-0.439-0.178l-0.449-0.188l-0.522-0.188l-0.533-0.084l-0.611-0.188h-0.622H52.6
	H45.354z M36.785,34.817h32.774v32.068H36.785V34.817z"/>
<polygon fill-rule="evenodd" clip-rule="evenodd" fill="#010101" points="49.324,52.455 49.408,52.455 49.507,52.455 49.591,52.455 
	49.773,52.455 49.946,52.455 50.212,52.455 50.479,52.455 50.735,52.455 51.007,52.455 51.356,52.455 51.623,52.455 51.979,52.455 
	52.333,52.455 52.6,52.455 52.867,52.455 53.217,52.455 53.306,52.455 53.389,52.455 53.488,52.455 53.562,52.455 53.562,52.549 
	53.655,52.549 53.744,52.549 53.828,52.549 53.927,52.549 54.011,52.549 54.094,52.549 54.194,52.549 54.267,52.549 54.366,52.549 
	54.45,52.549 54.533,52.633 54.632,52.633 54.716,52.633 54.805,52.633 54.899,52.633 54.982,52.633 55.071,52.737 55.155,52.737 
	55.244,52.737 55.338,52.821 55.421,52.821 55.521,52.821 55.594,52.821 55.594,52.925 55.693,52.925 55.777,52.925 55.86,53.009 
	55.949,53.009 56.043,53.009 56.043,53.092 56.143,53.092 56.226,53.092 56.226,53.197 56.31,53.197 56.398,53.281 56.482,53.281 
	56.571,53.385 56.665,53.469 56.749,53.469 56.749,53.573 56.837,53.573 56.837,53.657 56.931,53.657 56.931,53.74 57.02,53.74 
	57.02,53.824 57.104,53.824 57.104,53.928 57.188,53.928 57.188,54.022 57.276,54.022 57.276,54.117 57.36,54.117 57.36,54.2 
	57.36,54.305 57.459,54.305 57.459,54.388 57.459,54.472 57.553,54.576 57.553,54.66 57.626,54.764 57.626,54.848 57.626,54.942 
	57.626,55.025 57.626,55.13 57.626,55.214 57.726,55.214 57.726,55.308 57.726,55.402 57.726,55.496 57.726,55.58 57.726,55.673 
	57.726,55.768 57.726,55.861 57.726,55.945 57.626,56.039 57.626,56.133 57.626,56.227 57.626,56.321 57.626,56.405 57.553,56.499 
	57.553,56.593 57.553,56.697 57.459,56.771 57.459,56.875 57.36,56.958 57.36,57.063 57.276,57.147 57.276,57.23 57.188,57.23 
	57.188,57.335 57.104,57.335 57.104,57.418 57.02,57.502 57.02,57.606 56.931,57.606 56.837,57.69 56.837,57.794 56.749,57.794 
	56.665,57.878 56.571,57.962 56.482,57.962 56.398,58.066 56.31,58.066 56.226,58.15 56.143,58.15 56.043,58.254 55.949,58.254 
	55.86,58.338 55.777,58.338 55.693,58.442 55.594,58.442 55.521,58.442 55.338,58.526 55.244,58.526 55.155,58.526 55.071,58.61 
	54.982,58.61 54.899,58.61 54.805,58.61 54.716,58.704 54.533,58.704 54.45,58.704 54.366,58.704 54.267,58.704 54.194,58.704 
	54.094,58.704 54.094,58.798 54.011,58.798 53.927,58.798 53.828,58.798 53.744,58.798 53.655,58.798 53.562,58.798 53.488,58.798 
	53.389,58.798 53.306,58.798 49.324,58.798 "/>
<polygon fill-rule="evenodd" clip-rule="evenodd" fill="#010101" points="49.324,42.904 49.408,42.904 49.591,42.904 49.68,42.904 
	49.857,42.904 50.129,42.904 50.296,42.904 50.568,42.904 50.735,42.904 51.007,42.904 51.184,42.904 51.445,42.904 51.623,42.904 
	51.795,42.904 51.895,42.904 51.979,42.904 52.062,42.904 52.151,42.904 52.245,42.904 52.333,42.904 52.428,42.904 52.511,42.904 
	52.6,42.904 52.684,42.904 52.783,42.904 52.867,42.904 53.039,42.999 53.123,42.999 53.217,42.999 53.306,42.999 53.389,42.999 
	53.562,43.093 53.655,43.093 53.744,43.093 53.828,43.093 53.927,43.176 54.094,43.176 54.194,43.27 54.267,43.27 54.366,43.364 
	54.45,43.364 54.533,43.458 54.632,43.458 54.632,43.542 54.716,43.542 54.805,43.542 54.805,43.646 54.899,43.646 54.899,43.73 
	54.982,43.73 54.982,43.824 55.071,43.824 55.071,43.908 55.155,43.908 55.155,44.022 55.244,44.022 55.244,44.096 55.338,44.19 
	55.338,44.273 55.421,44.273 55.421,44.367 55.421,44.472 55.521,44.556 55.521,44.649 55.594,44.744 55.594,44.837 55.594,44.921 
	55.594,45.026 55.594,45.109 55.693,45.214 55.693,45.297 55.693,45.381 55.693,45.464 55.693,45.569 55.693,45.653 55.693,45.757 
	55.693,45.841 55.693,45.945 55.693,46.029 55.693,46.112 55.594,46.217 55.594,46.3 55.594,46.384 55.594,46.489 55.594,46.572 
	55.594,46.677 55.521,46.677 55.521,46.76 55.521,46.854 55.421,46.948 55.421,47.032 55.421,47.147 55.338,47.147 55.338,47.22 
	55.338,47.314 55.244,47.314 55.244,47.408 55.155,47.502 55.071,47.596 55.071,47.68 54.982,47.68 54.982,47.774 54.899,47.868 
	54.805,47.868 54.716,47.952 54.632,48.045 54.533,48.14 54.45,48.14 54.366,48.233 54.267,48.328 54.194,48.328 54.094,48.328 
	54.011,48.411 53.927,48.411 53.828,48.505 53.744,48.505 53.655,48.505 53.562,48.599 53.488,48.599 53.389,48.599 53.306,48.693 
	53.123,48.693 53.039,48.693 52.95,48.693 52.867,48.693 52.783,48.788 52.684,48.788 52.6,48.788 52.511,48.788 52.428,48.788 
	52.333,48.788 52.245,48.788 52.151,48.788 52.062,48.871 51.979,48.871 51.895,48.871 51.795,48.871 51.722,48.871 51.623,48.871 
	51.54,48.871 51.445,48.871 51.356,48.871 51.273,48.871 49.324,48.871 "/>
<polygon fill-rule="evenodd" clip-rule="evenodd" fill="#010101" points="87.14,52.455 87.224,52.455 87.406,52.455 87.589,52.455 
	87.762,52.455 88.028,52.455 88.294,52.455 88.551,52.455 88.822,52.455 89.172,52.455 89.439,52.455 89.805,52.455 90.061,52.455 
	90.416,52.455 90.682,52.455 90.938,52.455 91.022,52.455 91.121,52.455 91.205,52.455 91.304,52.455 91.377,52.455 91.377,52.549 
	91.471,52.549 91.56,52.549 91.644,52.549 91.743,52.549 91.827,52.549 91.91,52.549 92.009,52.549 92.093,52.549 92.182,52.549 
	92.265,52.549 92.349,52.633 92.448,52.633 92.532,52.633 92.631,52.633 92.715,52.633 92.798,52.633 92.887,52.737 92.971,52.737 
	93.07,52.737 93.153,52.821 93.237,52.821 93.336,52.821 93.42,52.925 93.509,52.925 93.592,52.925 93.676,53.009 93.775,53.009 
	93.859,53.009 93.859,53.092 93.948,53.092 94.042,53.092 94.042,53.197 94.125,53.197 94.214,53.281 94.298,53.281 94.387,53.385 
	94.48,53.469 94.564,53.469 94.564,53.573 94.653,53.573 94.653,53.657 94.737,53.657 94.737,53.74 94.836,53.74 94.836,53.824 
	94.919,53.824 94.919,53.928 95.003,53.928 95.003,54.022 95.103,54.117 95.175,54.2 95.175,54.305 95.275,54.388 95.275,54.472 
	95.275,54.576 95.358,54.576 95.358,54.66 95.358,54.764 95.358,54.848 95.442,54.848 95.442,54.942 95.442,55.025 95.442,55.13 
	95.442,55.214 95.442,55.308 95.442,55.402 95.442,55.496 95.541,55.496 95.541,55.58 95.541,55.673 95.442,55.673 95.442,55.768 
	95.442,55.861 95.442,55.945 95.442,56.039 95.442,56.133 95.442,56.227 95.442,56.321 95.358,56.405 95.358,56.499 95.358,56.593 
	95.275,56.697 95.275,56.771 95.275,56.875 95.175,56.958 95.175,57.063 95.103,57.147 95.103,57.23 95.003,57.23 95.003,57.335 
	94.919,57.335 94.919,57.418 94.836,57.502 94.836,57.606 94.737,57.606 94.653,57.69 94.564,57.794 94.48,57.794 94.48,57.878 
	94.387,57.962 94.298,57.962 94.214,58.066 94.125,58.066 94.042,58.15 93.948,58.15 93.859,58.254 93.775,58.254 93.676,58.338 
	93.592,58.338 93.509,58.442 93.42,58.442 93.237,58.442 93.153,58.526 93.07,58.526 92.971,58.526 92.887,58.61 92.798,58.61 
	92.715,58.61 92.532,58.61 92.448,58.704 92.349,58.704 92.265,58.704 92.182,58.704 92.093,58.704 92.009,58.704 91.91,58.704 
	91.827,58.798 91.743,58.798 91.644,58.798 91.56,58.798 91.471,58.798 91.377,58.798 91.304,58.798 91.205,58.798 91.121,58.798 
	87.14,58.798 "/>
<polygon fill-rule="evenodd" clip-rule="evenodd" fill="#010101" points="87.14,42.904 87.224,42.904 87.323,42.904 87.506,42.904 
	87.673,42.904 87.845,42.904 88.112,42.904 88.294,42.904 88.551,42.904 88.822,42.904 89,42.904 89.172,42.904 89.439,42.904 
	89.528,42.904 89.71,42.904 89.805,42.904 89.878,42.904 89.977,42.904 90.061,42.904 90.149,42.904 90.233,42.904 90.316,42.904 
	90.416,42.904 90.5,42.904 90.599,42.904 90.682,42.904 90.755,42.999 90.938,42.999 91.022,42.999 91.121,42.999 91.205,42.999 
	91.304,43.093 91.377,43.093 91.56,43.093 91.644,43.093 91.743,43.176 91.827,43.176 91.91,43.27 92.093,43.27 92.182,43.364 
	92.265,43.364 92.265,43.458 92.349,43.458 92.448,43.458 92.448,43.542 92.532,43.542 92.631,43.646 92.715,43.646 92.715,43.73 
	92.798,43.73 92.798,43.824 92.887,43.824 92.887,43.908 92.971,43.908 92.971,44.022 93.07,44.096 93.07,44.19 93.153,44.19 
	93.153,44.273 93.237,44.367 93.237,44.472 93.237,44.556 93.336,44.556 93.336,44.649 93.336,44.744 93.42,44.837 93.42,44.921 
	93.42,45.026 93.42,45.109 93.42,45.214 93.42,45.297 93.509,45.381 93.509,45.464 93.509,45.569 93.509,45.653 93.509,45.757 
	93.509,45.841 93.509,45.945 93.509,46.029 93.42,46.112 93.42,46.217 93.42,46.3 93.42,46.384 93.42,46.489 93.42,46.572 
	93.336,46.677 93.336,46.76 93.336,46.854 93.237,46.948 93.237,47.032 93.153,47.147 93.153,47.22 93.153,47.314 93.07,47.314 
	93.07,47.408 92.971,47.408 92.971,47.502 92.887,47.596 92.798,47.68 92.715,47.774 92.631,47.868 92.532,47.952 92.448,47.952 
	92.448,48.045 92.349,48.14 92.265,48.14 92.182,48.233 92.093,48.233 92.009,48.328 91.91,48.328 91.827,48.411 91.743,48.411 
	91.644,48.505 91.56,48.505 91.471,48.505 91.377,48.505 91.377,48.599 91.304,48.599 91.121,48.599 91.022,48.693 90.938,48.693 
	90.854,48.693 90.755,48.693 90.682,48.693 90.599,48.788 90.5,48.788 90.416,48.788 90.316,48.788 90.233,48.788 90.149,48.788 
	90.061,48.788 89.977,48.788 89.878,48.871 89.805,48.871 89.71,48.871 89.611,48.871 89.528,48.871 89.439,48.871 89.355,48.871 
	89.271,48.871 89.172,48.871 89.089,48.871 87.14,48.871 "/>
<path fill="#144C9A" d="M96.095,163.843c1.327,3.605,1.604,6.458,0.836,8.559c-0.878,2.518-3.37,4.911-7.482,7.188
	c-5.679,3.114-10.935,0.533-15.773-7.711c-1.28-2.174-2.769-5.309-4.452-9.404c-1.901-4.598-3.965-8.788-6.181-12.57
	c-2.377-4.044-5.177-8.161-8.412-12.341c-1.86-2.414-3.359-4.618-4.514-6.583c-4.87-8.297-4.206-14.88,1.98-19.729
	c0.789-0.605,1.593-1.139,2.393-1.619c6.176-3.626,11.803-1.85,16.875,5.318c1.421,1.943,2.749,5.016,3.981,9.217
	c1.327,4.514,2.278,7.272,2.879,8.275c1.061,1.797,2.439,2.393,4.127,1.745c2.774-1.107,3.981-4.399,3.641-9.844
	c-0.282-4.983-1.437-9.143-3.448-12.466c-2.084-3.563-2.665-7.084-1.734-10.554c0.935-3.49,3.02-6.186,6.285-8.087
	c2.022-1.191,4.311-1.912,6.865-2.205c5.418-0.658,9.76,1.808,13.056,7.408c1.808,3.093,2.696,6.51,2.675,10.251
	c-0.021,4.096-1.155,8.088-3.38,11.985c-2.236,3.531-4.483,7.063-6.776,10.637c-1.546,2.696-1.797,4.661-0.716,5.904
	c0.815,0.888,3.584,0.543,8.317-1.014c5.272-1.725,9.138-2.174,11.562-1.296c3.6,1.254,6.583,3.888,8.924,7.879
	c1.714,2.946,2.419,5.799,2.1,8.548c-0.313,3.135-2.011,5.663-5.094,7.628c-4.237,2.685-8.605,3.239-13.129,1.63
	c-1.186-0.46-4.645-2.435-10.355-5.936c-3.631-2.277-6.452-2.8-8.474-1.63c-0.59,0.334-1.181,0.878-1.766,1.567
	c-0.715,0.867-0.794,1.776-0.225,2.728c0.246,0.428,1.155,1.39,2.738,2.915C94.789,161.586,95.688,162.789,96.095,163.843"/>
<path fill="#144C9A" d="M133.535,95.83c0.47,0.805,0.846,1.672,1.175,2.675c0.501,1.526,0.256,3.26-0.747,5.162
	c-1.019,1.902-2.409,3.375-4.153,4.399c-2.153,1.265-4.127,1.41-5.951,0.429c-1.483-0.753-2.696-1.923-3.615-3.49
	c-1.285-2.194-1.646-4.462-1.092-6.792c0.569-2.341,2.205-4.096,4.911-5.298C128.206,91.148,131.351,92.131,133.535,95.83
	 M140.253,111.127c2.44,0.94,4.342,2.56,5.716,4.891c0.423,0.731,0.747,1.463,0.972,2.173c1.217,3.762,2.779,7.241,4.686,10.512
	c1.286,2.185,2.612,4.002,3.971,5.424c1.902,2.026,3.574,4.253,5.006,6.677c3.876,6.625,3.646,11.201-0.7,13.751
	c-5.987,3.511-10.512,2.665-13.563-2.528c-0.799-1.369-1.677-3.595-2.644-6.709c-0.381-1.19-1.045-2.612-1.99-4.221
	c-1.708-2.926-4.514-6.729-8.396-11.463c-1.05-1.223-1.917-2.435-2.633-3.668c-1.917-3.25-2.581-6.228-2.001-8.924
	c0.533-2.341,1.85-4.117,3.939-5.35C135.055,110.25,137.599,110.062,140.253,111.127"/>
<path fill="#144C9A" d="M164.877,127.449c-0.92-1.692-1.839-3.72-2.717-6.029c-4.232-11.274-1.034-19.738,9.593-25.391
	c2.695-1.473,5.36-2.08,8.004-1.829c2.633,0.251,4.096,0.292,4.389,0.125c1.316-0.731,1.577-1.839,0.752-3.365
	c-0.376-0.679-1.483-2.111-3.302-4.305c-1.829-2.184-3.02-3.929-3.595-5.204c-0.972-2.132-1.369-4.441-1.17-6.896
	c0.24-3.051,1.463-5.12,3.657-6.196c4.911-2.289,9.478,0.449,13.688,8.203c1.254,2.299,2.518,5.078,3.782,8.338
	c3.783,9.76,7.304,17.157,10.554,22.194c0.178,0.219,0.982,1.348,2.403,3.364c1.171,1.589,2.069,2.947,2.696,4.075
	c2.842,5.246,1.943,9.133-2.696,11.672c-1.023,0.554-2.539,0.742-4.514,0.554c-1.976-0.198-3.47-0.021-4.493,0.544
	c-1.14,0.616-2.759,2.026-4.869,4.263c-2.122,2.236-3.992,3.783-5.602,4.66c-2.884,1.567-6.081,2.299-9.571,2.174
	C174.375,138.149,168.701,134.513,164.877,127.449 M182.483,123.542c2.247,0.522,4.379,0.25,6.385-0.826
	c1.265-0.7,2.32-1.63,3.156-2.748c1.515-2.226,1.504-4.744-0.042-7.575c-1.035-1.912-2.487-3.323-4.347-4.243
	c-1.86-0.908-3.741-0.972-5.653-0.198c-2.069,0.867-3.646,2.487-4.765,4.869c-1.223,2.508-1.244,4.733-0.063,6.688
	C178.45,121.639,180.227,122.987,182.483,123.542"/>
<path fill="#144C9A" d="M236.151,62.581c-2.696,1.463-6.74,1.881-12.152,1.254c-1.149-0.125-2.236,0.083-3.239,0.647
	c-1.202,0.648-2.038,1.651-2.498,3.03c-0.46,1.358-0.387,2.612,0.24,3.751c1.38,2.55,4.399,2.456,9.028-0.303
	c6.709-4.106,12.393-5.924,17.021-5.475c4.64,0.459,8.454,3.427,11.422,8.861c2.695,4.974,2.403,10.136-0.899,15.507
	c-2.873,4.577-7.314,8.505-13.312,11.766c-5.204,2.842-10.513,4.326-15.873,4.451c-5.966,0.042-9.916-1.714-11.859-5.329
	c-0.397-0.71-0.731-1.504-0.972-2.393c-0.826-3.814,0.156-6.489,2.978-8.036c3.239-1.755,7.283-1.881,12.143-0.387
	c3.166,0.972,5.977,0.805,8.442-0.554c2.163-1.16,3.323-3.009,3.521-5.538c0.084-0.815,0.011-1.484-0.24-1.964
	c-0.7-1.244-2.633-1.505-5.768-0.731c-1.338,0.271-4.692,1.4-10.063,3.365c-8.85,3.176-15.548,0.94-20.104-6.719
	c-2.508-4.169-3.104-8.568-1.798-13.177c1.516-5.496,5.569-10.25,12.184-14.232c5.747-3.438,11.108-5.151,16.092-5.151
	c4.63-0.052,7.765,1.432,9.395,4.42c0.585,1.066,0.898,2.299,0.961,3.668C240.885,57.763,239.327,60.846,236.151,62.581"/>
</svg>
